<mxfile host="app.diagrams.net" modified="2022-03-17T00:50:23.035Z" agent="5.0 (Windows NT 10.0; Win64; x64) AppleWebKit/537.36 (KHTML, like Gecko) Chrome/99.0.4844.51 Safari/537.36" etag="rlzAgVoezCVHC7HqzBn_" version="17.1.3" type="github">
  <diagram id="C5RBs43oDa-KdzZeNtuy" name="Page-1">
    <mxGraphModel dx="868" dy="482" grid="1" gridSize="10" guides="1" tooltips="1" connect="1" arrows="1" fold="1" page="1" pageScale="1" pageWidth="827" pageHeight="1169" math="0" shadow="0">
      <root>
        <mxCell id="WIyWlLk6GJQsqaUBKTNV-0" />
        <mxCell id="WIyWlLk6GJQsqaUBKTNV-1" parent="WIyWlLk6GJQsqaUBKTNV-0" />
        <mxCell id="hzunNIvYzS_M0qzEkVdT-1" value="" style="rounded=0;whiteSpace=wrap;html=1;strokeColor=#inicio;" vertex="1" parent="WIyWlLk6GJQsqaUBKTNV-1">
          <mxGeometry x="340" y="150" width="120" height="60" as="geometry" />
        </mxCell>
        <mxCell id="hzunNIvYzS_M0qzEkVdT-10" value="" style="edgeStyle=orthogonalEdgeStyle;rounded=0;orthogonalLoop=1;jettySize=auto;html=1;fontSize=14;" edge="1" parent="WIyWlLk6GJQsqaUBKTNV-1" source="hzunNIvYzS_M0qzEkVdT-3">
          <mxGeometry relative="1" as="geometry">
            <mxPoint x="130" y="150" as="targetPoint" />
            <Array as="points">
              <mxPoint x="130" y="140" />
              <mxPoint x="130" y="140" />
            </Array>
          </mxGeometry>
        </mxCell>
        <mxCell id="hzunNIvYzS_M0qzEkVdT-3" value="&lt;font size=&quot;3&quot;&gt;&lt;b&gt;INICIO&amp;nbsp;&lt;/b&gt;&lt;/font&gt;" style="rounded=1;whiteSpace=wrap;html=1;strokeColor=#000000;" vertex="1" parent="WIyWlLk6GJQsqaUBKTNV-1">
          <mxGeometry x="70" y="40" width="120" height="60" as="geometry" />
        </mxCell>
        <mxCell id="hzunNIvYzS_M0qzEkVdT-23" style="edgeStyle=orthogonalEdgeStyle;rounded=0;orthogonalLoop=1;jettySize=auto;html=1;exitX=0.5;exitY=1;exitDx=0;exitDy=0;fontSize=14;" edge="1" parent="WIyWlLk6GJQsqaUBKTNV-1" source="hzunNIvYzS_M0qzEkVdT-19">
          <mxGeometry relative="1" as="geometry">
            <mxPoint x="130" y="280" as="targetPoint" />
          </mxGeometry>
        </mxCell>
        <mxCell id="hzunNIvYzS_M0qzEkVdT-19" value="A=4&lt;br&gt;B=6" style="shape=parallelogram;perimeter=parallelogramPerimeter;whiteSpace=wrap;html=1;fixedSize=1;fontSize=14;strokeColor=#000000;" vertex="1" parent="WIyWlLk6GJQsqaUBKTNV-1">
          <mxGeometry x="70" y="170" width="120" height="60" as="geometry" />
        </mxCell>
        <mxCell id="hzunNIvYzS_M0qzEkVdT-24" style="edgeStyle=orthogonalEdgeStyle;rounded=0;orthogonalLoop=1;jettySize=auto;html=1;exitX=0.5;exitY=1;exitDx=0;exitDy=0;fontSize=14;" edge="1" parent="WIyWlLk6GJQsqaUBKTNV-1" source="hzunNIvYzS_M0qzEkVdT-20">
          <mxGeometry relative="1" as="geometry">
            <mxPoint x="180" y="380" as="targetPoint" />
            <Array as="points">
              <mxPoint x="130" y="370" />
              <mxPoint x="180" y="370" />
            </Array>
          </mxGeometry>
        </mxCell>
        <mxCell id="hzunNIvYzS_M0qzEkVdT-20" value="C=A+B" style="rounded=0;whiteSpace=wrap;html=1;fontSize=14;strokeColor=#000000;" vertex="1" parent="WIyWlLk6GJQsqaUBKTNV-1">
          <mxGeometry x="70" y="290" width="120" height="60" as="geometry" />
        </mxCell>
        <mxCell id="hzunNIvYzS_M0qzEkVdT-41" style="edgeStyle=orthogonalEdgeStyle;rounded=0;orthogonalLoop=1;jettySize=auto;html=1;exitX=0.5;exitY=1;exitDx=0;exitDy=0;fontSize=14;" edge="1" parent="WIyWlLk6GJQsqaUBKTNV-1" source="hzunNIvYzS_M0qzEkVdT-28">
          <mxGeometry relative="1" as="geometry">
            <mxPoint x="180" y="520" as="targetPoint" />
          </mxGeometry>
        </mxCell>
        <mxCell id="hzunNIvYzS_M0qzEkVdT-51" style="edgeStyle=orthogonalEdgeStyle;rounded=0;orthogonalLoop=1;jettySize=auto;html=1;entryX=0;entryY=0.5;entryDx=0;entryDy=0;fontSize=14;" edge="1" parent="WIyWlLk6GJQsqaUBKTNV-1" source="hzunNIvYzS_M0qzEkVdT-28" target="hzunNIvYzS_M0qzEkVdT-29">
          <mxGeometry relative="1" as="geometry" />
        </mxCell>
        <mxCell id="hzunNIvYzS_M0qzEkVdT-28" value="A&amp;lt;&amp;gt;B" style="rhombus;whiteSpace=wrap;html=1;fontSize=14;strokeColor=#000000;" vertex="1" parent="WIyWlLk6GJQsqaUBKTNV-1">
          <mxGeometry x="140" y="390" width="80" height="80" as="geometry" />
        </mxCell>
        <mxCell id="hzunNIvYzS_M0qzEkVdT-40" style="edgeStyle=orthogonalEdgeStyle;rounded=0;orthogonalLoop=1;jettySize=auto;html=1;exitX=1;exitY=0.5;exitDx=0;exitDy=0;fontSize=14;" edge="1" parent="WIyWlLk6GJQsqaUBKTNV-1" source="hzunNIvYzS_M0qzEkVdT-29">
          <mxGeometry relative="1" as="geometry">
            <mxPoint x="370" y="430" as="targetPoint" />
          </mxGeometry>
        </mxCell>
        <mxCell id="hzunNIvYzS_M0qzEkVdT-42" style="edgeStyle=orthogonalEdgeStyle;rounded=0;orthogonalLoop=1;jettySize=auto;html=1;exitX=0.5;exitY=1;exitDx=0;exitDy=0;fontSize=14;" edge="1" parent="WIyWlLk6GJQsqaUBKTNV-1" source="hzunNIvYzS_M0qzEkVdT-29">
          <mxGeometry relative="1" as="geometry">
            <mxPoint x="300" y="520" as="targetPoint" />
          </mxGeometry>
        </mxCell>
        <mxCell id="hzunNIvYzS_M0qzEkVdT-46" style="edgeStyle=orthogonalEdgeStyle;rounded=0;orthogonalLoop=1;jettySize=auto;html=1;fontSize=14;" edge="1" parent="WIyWlLk6GJQsqaUBKTNV-1" source="hzunNIvYzS_M0qzEkVdT-29">
          <mxGeometry relative="1" as="geometry">
            <mxPoint x="500" y="520" as="targetPoint" />
          </mxGeometry>
        </mxCell>
        <mxCell id="hzunNIvYzS_M0qzEkVdT-29" value="A&amp;gt;B" style="rhombus;whiteSpace=wrap;html=1;fontSize=14;strokeColor=#000000;" vertex="1" parent="WIyWlLk6GJQsqaUBKTNV-1">
          <mxGeometry x="260" y="390" width="80" height="80" as="geometry" />
        </mxCell>
        <mxCell id="hzunNIvYzS_M0qzEkVdT-49" style="edgeStyle=orthogonalEdgeStyle;rounded=0;orthogonalLoop=1;jettySize=auto;html=1;entryX=1;entryY=0.75;entryDx=0;entryDy=0;fontSize=14;" edge="1" parent="WIyWlLk6GJQsqaUBKTNV-1" source="hzunNIvYzS_M0qzEkVdT-34" target="hzunNIvYzS_M0qzEkVdT-38">
          <mxGeometry relative="1" as="geometry" />
        </mxCell>
        <mxCell id="hzunNIvYzS_M0qzEkVdT-34" value="A" style="shape=document;whiteSpace=wrap;html=1;boundedLbl=1;fontSize=14;strokeColor=#000000;" vertex="1" parent="WIyWlLk6GJQsqaUBKTNV-1">
          <mxGeometry x="430" y="540" width="120" height="80" as="geometry" />
        </mxCell>
        <mxCell id="hzunNIvYzS_M0qzEkVdT-48" style="edgeStyle=orthogonalEdgeStyle;rounded=0;orthogonalLoop=1;jettySize=auto;html=1;entryX=0.5;entryY=0;entryDx=0;entryDy=0;fontSize=14;" edge="1" parent="WIyWlLk6GJQsqaUBKTNV-1" source="hzunNIvYzS_M0qzEkVdT-35" target="hzunNIvYzS_M0qzEkVdT-38">
          <mxGeometry relative="1" as="geometry" />
        </mxCell>
        <mxCell id="hzunNIvYzS_M0qzEkVdT-35" value="B" style="shape=document;whiteSpace=wrap;html=1;boundedLbl=1;fontSize=14;strokeColor=#000000;" vertex="1" parent="WIyWlLk6GJQsqaUBKTNV-1">
          <mxGeometry x="260" y="540" width="120" height="80" as="geometry" />
        </mxCell>
        <mxCell id="hzunNIvYzS_M0qzEkVdT-47" style="edgeStyle=orthogonalEdgeStyle;rounded=0;orthogonalLoop=1;jettySize=auto;html=1;entryX=0;entryY=0.5;entryDx=0;entryDy=0;fontSize=14;" edge="1" parent="WIyWlLk6GJQsqaUBKTNV-1" source="hzunNIvYzS_M0qzEkVdT-36" target="hzunNIvYzS_M0qzEkVdT-38">
          <mxGeometry relative="1" as="geometry" />
        </mxCell>
        <mxCell id="hzunNIvYzS_M0qzEkVdT-36" value="A=B" style="shape=document;whiteSpace=wrap;html=1;boundedLbl=1;fontSize=14;strokeColor=#000000;" vertex="1" parent="WIyWlLk6GJQsqaUBKTNV-1">
          <mxGeometry x="100" y="540" width="120" height="80" as="geometry" />
        </mxCell>
        <mxCell id="hzunNIvYzS_M0qzEkVdT-38" value="" style="rounded=1;whiteSpace=wrap;html=1;fontSize=14;strokeColor=#000000;" vertex="1" parent="WIyWlLk6GJQsqaUBKTNV-1">
          <mxGeometry x="260" y="670" width="120" height="60" as="geometry" />
        </mxCell>
      </root>
    </mxGraphModel>
  </diagram>
</mxfile>
